<svg xmlns="http://www.w3.org/2000/svg" width="100mm" height="80.5mm" viewBox="0 0 100 80.5"><g style="opacity:1"><g style="fill:#fff;fill-opacity:1;stroke-width:1.95768"><path fill="#03356e" d="M463.198 358.975c-.21-.698-.421-1.396-.349-2.616.272-1.483.26-2.444.274-3.556.028-.15-.006-.456.378-.423.77-.366 1.156-.764 1.541-1.161-4.014-3.096-8.028-6.191-12.043-9.253 0 .034.068.03.207-.34-.31-.477-.76-.585-1.208-.659.002.033.067.021.088-.328-.65-.382-1.32-.415-2.155-.777-.934-2.084-1.703-3.84-3.117-7.069-1.737 2.669-3.924 4.577-3.584 5.76 1.42 4.938 3.598 9.658 5.498 14.459 3.626 14.51 7.763 28.92 10.637 43.578 1.24 6.325-.393 13.168-.256 19.766.173 8.32.909 16.628 1.246 24.948.743 18.332 1.98 36.579 7.34 54.302.346 1.143-.819 3.227-1.892 4.193-1.414 1.273-3.434 1.871-6.145 3.24 2.394 2.448 4.114 4.93 6.456 6.46 5.974 3.904 12.272 7.307 18.348 11.06 3.79 2.343 8.68 4.563 8.391 9.66-.311 5.48-6.115 5.381-9.927 6.805-10.991 4.107-22.071 3.924-33.29.386-9.972-3.144-20.145-5.652-30.168-8.645-1.33-.397-3.047-1.85-3.292-3.072-.698-3.48-.727-7.095-1.058-11.133-5.929-2.308-6.002-7.916-5.661-13.79.857-14.777 2.529-29.578 2.208-44.332-.329-15.103-2.958-30.142-3.942-45.25-.47-7.233-2.697-13.403-6.473-19.448-11.543-18.478-22.594-37.267-34.321-55.626-3.627-5.677-8.96-10.238-13.236-15.533-7.018-8.69-21.03-6.535-26.33.76-5.745 7.905-11.82 15.91-15.666 24.776-6.136 14.142-11.377 28.801-15.498 43.657-6.532 23.55-12.27 47.348-17.481 71.228-3.185 14.595-4.667 29.557-7.173 44.31-.285 1.68-2.126 4.234-3.458 4.375-3.532.373-4.824 2.516-4.922 5.203-.173 4.777-.068 9.633.622 14.353.69 4.721-.635 7.522-5.156 9.308-12.114 4.785-24.212 6.827-35.849-.731-2.34-1.52-4.59-5.253-4.557-7.937.08-6.554 1.523-13.09 2.504-20.268-.754-.083-2.29-.24-3.824-.423-5.598-.664-6.066-1.34-4.376-6.557 7.025-21.692 14.126-43.36 21.085-65.073 6.58-20.529 9.32-41.697 12.232-63.041 5.422-39.744 17.86-77.748 34.645-114.262 1.996-4.342 3.745-8.98 4.524-13.66 1.566-9.425 5.794-17.588 10.48-25.656.949-1.635 1.526-3.485 2.728-5.677 1.2-3.414 1.945-6.387 2.707-9.34.015.02-.031.01.32-.037.758-1.256 1.164-2.465 1.57-3.674-.602-.08-1.205-.159-2.087-.287-.773-.308-1.268-.567-1.97-1.119-8.891-1.972-17.561-3.726-26.278-5.206-.833-.141-1.957 1.43-2.946 2.206.912.647 1.825 1.293 2.739 1.95.002.011.027.006-.106.372-3.476 3.246-6.821 6.125-10.166 9.004 0 0-.148.189-.677.088-4.23.101-7.93.451-11.63.44-1.712-.004-3.423-.71-5.134-1.098 0 0-.04-.075.044-.447-.626-1.355-1.146-2.605-2.08-3.276-3.308-2.377-7.196-4.221-6.83-9.317.01-.141-1.442-.387-2.213-.583 0 0-.103-.41.037-.655.139-.244-.064-.334-.064-.334l.168.423s-.079.375-.534.198c-1.33-.05-2.206.075-3.082.2-1.412-.08-2.823-.16-4.804-.706-3.241-1.745-5.848-3.193-8.604-4.255-2.991-1.154-6.132-1.983-7.34 2.483 0 0-.217-.204-.361-.1-.394.346-.644.587-.894.828-13.802 9.938-17.616 24.963-20.049 40.423-4.579 29.099-3.719 58.465-3.502 87.778.25 33.828.408 67.661-3.659 101.315-3.74 30.954-10.588 61.053-27.053 88.103-19.384 31.844-48.202 50.265-84.072 58.471-.782.18-1.59.245-2.838.43l-2.298-10.946c6.918-2.171 13.633-3.974 20.13-6.369 36.137-13.318 58.536-39.776 71.488-75.186 9.124-24.943 13.47-50.904 14.65-77.242 1.325-29.605 1.343-59.273 1.696-88.917.33-27.642-.395-55.339 4.532-82.71 2.464-13.691 6.203-26.96 15.202-38.068 4.605-5.684 10.29-9.868 17.264-12.282 1.66-.575 3.102-1.764 4.743-2.426 1.875-.756 3.882-1.806 5.794-1.734 5.44.203 10.86.912 17.06 1.495 0-4.863.57-9.281-.12-13.493-1.424-8.691-3.422-17.295-5.426-25.878-.396-1.695-1.884-3.134-2.86-4.697-1.61-2.58-4.252-5.033-4.601-7.776-.708-5.566-.442-11.308-.066-16.944.303-4.553 10.192-10.083 14.484-8.508 1.509.553 3.071.963 5.876 1.83l-2.2-2.803c11.755-8.888 25.104-8.933 38.514-6.284 21.033 4.156 42.048 3.63 63.125 1.13 2.486-.296 4.845-2.885 7.2-2.793 4.212.166 8.49 1.216 12.532 2.537 4.568 1.493 8.906 3.692 13.802 5.974.8.506 1.141.623 1.482.74 0 0 .158-.195.2.165.694.742 1.349 1.124 2.003 1.507 0 0 .212.285.533.648a984.67 984.67 0 0 0 10.447 9.488c-.01-.03-.072-.016-.227.293.108.675.371 1.04.634 1.406a16.36 16.36 0 0 0 .556-2.05c-.745-1.395-1.502-2.405-2.263-3.427-.005-.011-.028.01.044-.364-.085-1.169.038-2.35-.442-2.697-4.96-3.59-4.822-8.818-4.266-13.919.64-5.875 1.956-11.674 2.809-17.53.227-1.564-.163-3.217-.27-4.829 0 0-.015-.495.446-.84 1.493-2.028 2.79-3.604 3.512-5.41 3.569-8.908 10.735-14.046 19.337-16.416 10.746-2.961 21.403-1.453 31.22 4.378 1.186.705 2.736.797 4.117 1.172 0 0-.222.233-.172.5 3.137 6.948 6.644 13.498 6.164 21.246-.029.472 1.08 1.016 1.66 1.526 0 0 .12.112.09.522 1.153 1.41 2.23 2.583 3.538 3.376 2.69 1.629 5.503 3.055 8.266 4.564l-.5 1.374-11.98-1.581-1.897 15.059s-.319-.118-.497-.12c-.466.905-.753 1.811-1.04 2.718.012.777.024 1.553-.243 2.97-.24 3.41 0 6.198-.264 8.937-.105 1.086-1.382 2.98-2.043 2.945-4.72-.248-5.555 2.317-5.42 6.25.047 1.367-.883 2.806-1.5 4.15-2.963 6.45-.527 11.184 6.62 12.784 0 0-.01.011.102.23.317.497.588.678.924.761 0 0-.04.015-.034.371 2.325 2.458 4.644 4.56 6.963 6.663 0 0 .034-.02.119.208.26.49.499.667.802.757 0 0 .286.212.251.787a201.8 201.8 0 0 0 5.295 13.525c.288.664 1.24 1.038 1.886 1.546.16.162.32.324.587 1.196 1.054 3.859 2.05 6.993 2.936 10.157 1.759 6.285 4.108 12.493 5.031 18.904 1.532 10.633 1.929 21.425 3.224 32.1.495 4.077 1.153 7.705-2.005 11.131-.996 1.08-.79 3.269-1.39 6.194 2.686-.838 4.231-1.509 5.842-1.767 1.496-.24 3.97-.621 4.42.081 1.147 1.786 1.535 4.116 1.976 6.28.465 2.277.323 4.714 1.013 6.904 1.175 3.728 1.534 6.702-1.811 9.923-1.731 1.666-2.236 5.275-2.2 7.992.159 12.043.726 24.081 1.124 36.122.288 8.727-1.49 17.651 2.795 25.98 1.577 3.065 2.628 6.4 4.206 9.462 1.693 3.285 3.138 7.01 5.716 9.47 8.947 8.537 18.337 16.61 27.564 24.853 3.071 2.743 6.156 5.47 9.243 8.195 11.237 9.924 22.756 19.55 33.634 29.853 9.446 8.947 17.91 18.926 27.273 27.967 11.997 11.585 28.273 14.07 43.31 18.952 6.526 2.119 13.517 2.81 20.297 4.15 0 0-.092.022-.086.359.552 1.498.856 2.877 1.68 3.785 5.564 6.13 11.496 11.943 16.815 18.273 8.241 9.81 9.096 9.227 3.27 18.545-.34.546-.373 1.291-.734 1.818-1.06 1.547-2.213 3.03-3.33 4.539l-1.31-.968 1.182-3.706-.982-.476c-.783 1.281-1.566 2.563-2.692 3.845-.88.353-1.416.706-1.928 1.063.025.004.03-.046-.23.03a2.92 2.92 0 0 0-.766.969c.02 0 .02-.04-.322-.09-1.403.353-2.464.758-3.913 1.142-1.495.649-2.603 1.317-4.03 2.023-.794.656-1.27 1.275-2.116 1.914-2.349 1.04-4.548 1.783-6.261 3.14-3.92 3.1-7.602 6.502-11.598 10.014-1.632 1.14-3.048 2.05-4.843 2.932-1.181.676-1.982 1.378-2.798 2.081-.016.001.019.022-.37-.034-1.209-.003-2.24-.251-2.82.15a1013.49 1013.49 0 0 0-18.97 13.452c-.564.409-.668 1.449-1.156 2.433-.684.494-1.198.75-1.907.75-3.604-.346-5.655 1.23-6.268 4.683-.058.04-.173.116-.507-.046-.865.454-1.395 1.07-2.006 1.623-.08-.062.105.022-.227-.006-.754.393-1.175.815-1.718 1.067-.123-.17.147.15-.19.076-.687.376-1.036.825-1.431 1.279-.047.004-.106.077-.378 0-.464.213-.657.502-.97.593-.123-.196.137.187-.245.09-1.407.267-2.469.554-3.448 1.014-2.536 1.192-5.036 2.461-7.635 3.741 1.903 4.57 7.511 1.88 11.003 4.287a43.132 43.132 0 0 0-.572 3.002s-.318-.244-.555-.227c-8.642-4.53-19.279-4.226-25.816-13.17-3.584-4.902-4.876-6.214-.466-8.616 1.965-1.071 4.03-4.321 7.353-1.745.525.407 3.171-.843 3.863-1.941 1.697-2.694 2.826-5.746 4.261-9 1.07-2.135 2.063-3.923 3.296-5.862.39-.683.54-1.217.698-2.169-.019-1.532-.048-2.647-.077-3.761 0 0 .093.114.361.068.773-.678 1.278-1.31 2.01-2.106.377-.687.527-1.21.71-1.778.031-.045.11-.122.301-.208.43-.253.588-.477.93-.994 1.413-3.814 2.559-7.392 3.705-10.97 0 0 .084.109.387.063 1.51-1.501 3.033-2.799 3.863-4.445 1.778-3.523 2.966-7.353 4.837-10.818 1.592-2.948 1.053-5.11-1.483-6.823-2.974-2.01-3.794-4.706-3.552-8.12.123-1.736-.522-3.514-.57-5.28-.028-1.074.42-2.16 1.033-3.282 3.701-1.513 7.025-2.984 9.542-4.098-4.696-2.166-11.215-3.763-15.903-7.598-14.551-11.9-28.385-24.677-42.538-37.066-13.504-11.82-27.06-23.579-40.702-35.479-.292-.215-.485-.285-.785-.677-1.177-1.288-2.258-2.224-3.427-3.386-.49-.49-.893-.752-1.419-1.318-1.832-1.957-3.54-3.61-5.275-5.616-.735-.785-1.444-1.216-2.024-1.746.13-.099-.11.121-.076-.257-1.041-1.003-2.118-1.63-3.256-2.296-.062-.04-.159-.153-.03-.512-.797-.886-1.722-1.413-2.571-2.008.076-.069-.064.081-.073-.247-.482-.571-.956-.815-1.494-1.11-.065-.05-.186-.16-.011-.526-.784-.813-1.743-1.261-2.732-1.705-.03.004-.091-.008.003-.369-1.458-1.823-3.521-4.819-4.479-4.5-6.874 2.293-12.025-.476-16.936-4.649m-83.271-105.263c.194.264.432.48.988 1.254l4.348 4.046.978-1.14c-1.687-1.355-3.374-2.711-5.32-4.473-.217-.253-.486-.42-1.107-.915l-1.147-.11c.342.306.684.612 1.26 1.338m7.962 5.677-.835.186c.18.269.358.538.777 1.44 1.346 1.1 2.692 2.197 4.038 3.296l.838-1.084c-1.492-1.159-2.985-2.318-4.818-3.838m33.595 31.069c1.502.865 3.005 1.73 4.517 2.54 0 0-.053.013-.584.6 8.653 7.715 17.286 15.452 25.989 23.11.805.71 2.054.914 3.806 1.335 3.037 1.206 6.074 2.412 8.883 3.976 0 0 .243-.349.1.306.916.616 1.833 1.231 3.412 1.795.22-.02.441-.039 1.35-.279-.59-3.682-.457-7.68-1.902-10.989-4.604-10.538-11.57-20-13.625-31.713-1.09-6.21-3.094-7.413-10.228-7.982 0 0-.178-.294-.175-1.148-.776-2.273 1.72-5.62-2.084-6.96 0 0-.132.147-.018-.653-1.442-2.79-2.883-5.58-4.6-8.76 0 0 .038-.476.716-.807.838-2.364 2.105-3.426 4.978-3.003 2.236.329 4.662-.632 7.513-1.42l2.495-.644c-4.387-1.327-8.567-2.591-13.019-4.52.085-.925.17-1.85.725-3.178-.13-.55-.26-1.1-.29-2.145-.096-.319-.191-.638-.192-1.464-.084-.15-.167-.3-.24-1.247-.19-1.043-.378-2.085-.453-3.844a273.873 273.873 0 0 1-2.205-6.679l-5.868-7.555c-5.148 7.942-9.7 14.963-14.972 22.023-4.096 3.763-5.413 8.438-4.512 14.534-.17.425-.34.851-1.15 1.543-3.713 6.244-1.354 11.874 1.559 17.575.614 1.202.144 2.958-.474 4.27l-8.067-6.856-1.146 1.457c3.418 2.455 6.837 4.91 10.278 7.324 0 0-.043.02-.26.716A394.34 394.34 0 0 0 418 286s-.041.027-.485.616c1.175 1.104 2.35 2.208 3.97 3.843m-162.683-116.81c1.565 3.19 4.193 4.001 7.641 4.414 13.733 1.643 27.885.435 40.924 5.977l9.883-36.092c-10.184 3.682-17.473-1.017-25.16-4.563-4.94-2.278-10.204-3.908-15.427-5.484-2.265-.683-4.277-.445-5.112 2.936-.473 1.915-3.21 3.247-4.865 4.903-1.494 1.493-3.808 2.871-4.195 4.642-1.629 7.444-2.67 15.016-3.689 23.268m101.06 61.762 3.517 5.455 1.612-1.185c-1.5-1.427-2.999-2.853-5.13-4.27m6.467 6.993 3.72 4.29 1.39-1.798c-1.696-1.043-3.391-2.086-5.11-2.492m27.344-128.342-.238-.311c.075.023.15.046.238.31m60.786 134.43s.04.022 0 0z" style="fill:#fff;fill-opacity:1;stroke-width:2.66299" transform="translate(-7.33 -5.56) scale(.13515)"/><path fill="#067ec1" d="M420.048 626.093c117.951 2.845 233.827-9.27 347.852-37.11l5.926 14.399c-1.323.432-2.775 1.039-4.287 1.382-39.813 9.058-80.034 15.654-120.586 20.4-75.753 8.866-151.771 11.707-227.977 10.339-51.319-.922-102.541-3.672-153.538-9.656-44.869-5.264-89.451-12.25-132.096-27.885-12.763-4.678-24.851-11.202-37.219-16.945-1.44-.668-2.688-1.747-4.947-3.249 38.246-13.816 65.379-38.627 82.004-74.59 9.35 9.928 18.438 19.556 27.48 29.225.537.573.905 1.447 1.035 2.234 1.946 11.733 10.779 16.426 20.492 20.392 3.168 1.294 6.422 2.817 9.035 4.966 40.669 33.445 87.454 52.98 139.2 60.933 15.609 2.4 31.423 3.47 47.626 5.165z" style="fill:#fff;fill-opacity:1;stroke-width:2.66299" transform="translate(-7.33 -5.56) scale(.13515)"/><path fill="#077dc1" d="M662.47 401.26s-.277-.024-.411-.479c-5.909-4.088-11.354-8.464-17.525-11.207-14.016-6.228-28.298-11.894-42.666-17.269-4.838-1.81-10.263-2.05-15.419-3.008 0 0-.228.111-.541-.274-4.128-1.318-7.903-2.473-11.763-3.147-15.11-2.639-30.247-5.125-45.374-7.668 0 0 .203-.158.146-.429-.65-2.02-1.241-3.769-1.833-5.518.413.006.826.013 1.714.467 6.986 1.048 13.494 1.678 20.009 2.24 7.542.651 15.081 1.386 22.637 1.814 5.83.33 11.682.24 17.524.338 1.07.046 2.142.092 3.728.601 6.318 1.526 12.165 2.39 17.915 3.688 14.963 3.377 29.936 6.738 44.806 10.498 12.304 3.11 24.454 6.825 36.7 10.174 3.77 1.032 7.63 1.742 11.448 2.599 0 0 .247-.076.493.338 1.966 1.346 3.617 2.444 5.417 3.18 6.604 2.702 13.245 5.317 19.898 7.898 4.237 1.643 8.52 3.167 12.781 4.745 0 0-.094.095.037.364 1.193 1.298 2.084 2.665 3.343 3.301 9.832 4.969 19.306 10.405 27.119 18.378 1.065 1.087 2.893 1.426 4.367 2.111 0 0-.022.007.004.35 2.27 2.792 4.512 5.243 6.755 7.693 0 0 .174.031.176.491 1.155 3.372 2.074 6.406 3.509 9.172 3.667 7.07 5.635 14.762 5.28 22.458-.475 10.318-3.617 20.137-9.878 28.743-2.277 3.131-3.933 6.715-5.872 10.092 0 0 .006.006-.227.103a3.881 3.881 0 0 0-.75.93s-.015-.03-.354-.001c-2.434 2.354-4.53 4.682-6.624 7.009-.18.29-.359.58-1.16.909-1.77.623-3.014 1.073-4.054 1.812-7.275 5.167-14.125 11.072-21.845 15.447-12.045 6.826-24.425 13.196-37.122 18.702-12.428 5.389-25.414 9.503-38.216 14.003-.993.348-2.468-.678-3.72-1.066.322-.196.644-.392 1.597-.681 7.88-3.453 15.238-6.603 22.318-10.288 2.427-1.263 4.157-3.864 6.205-5.853 0 0 .166-.216.677-.192 1.623-1.074 2.735-2.172 3.848-3.27 0 0 .105.03.433.11 3.558-2.69 6.94-5.301 9.986-8.26 9.044-8.782 15.14-19.418 17.067-31.826 1.186-7.639 1.17-15.612.506-23.333-.384-4.48-3.117-8.76-4.793-13.13 0 0 .125-.036.148-.385-1.397-3.071-2.815-5.793-4.233-8.514 0 0 .246-.1.229-.41-2.194-4.488-3.916-8.996-6.65-12.77-4.236-5.845-8.89-11.452-13.899-16.648-3.05-3.164-7.096-5.367-10.694-8.002 0 0-.047-.231-.046-.439-.545-.453-1.09-.7-1.636-.946 0 0 .015-.007-.019-.346-3.763-3.05-7.493-5.763-11.222-8.476 0 0 .142-.017.11-.328-3.483-2.405-6.934-4.5-10.385-6.594z" style="fill:#fff;fill-opacity:1;stroke-width:2.66299" transform="translate(-7.33 -5.56) scale(.13515)"/><path fill="#057ec2" d="M67.35 542.268c-7.28 1.686-7.313 1.697-9.79-5.116-7.719-21.238-1.307-39.49 12.068-56.173 11.398-14.217 25.7-25.114 41.176-34.377 11.972-7.165 24.482-13.432 36.78-20.047 1.543-.83 3.254-1.344 6.295-2.574-1.782 9.216-3.073 17.213-4.896 25.087-5.632 24.319-14.723 46.983-32.433 65.317-13.547 14.023-30.112 22.795-49.2 27.883z" style="fill:#fff;fill-opacity:1;stroke-width:2.66299" transform="translate(-7.33 -5.56) scale(.13515)"/><path fill="#1d3f6c" d="M657.03 465.593c-6.707-.997-13.698-1.688-20.225-3.807-15.036-4.882-31.312-7.367-43.308-18.952-9.364-9.041-17.828-19.02-27.274-27.968-10.878-10.303-22.397-19.928-33.634-29.852a2160.029 2160.029 0 0 1-9.243-8.195c-9.227-8.243-18.617-16.316-27.564-24.853-2.578-2.46-4.023-6.185-5.716-9.47-1.578-3.063-2.63-6.397-4.206-9.461-4.284-8.33-2.507-17.254-2.795-25.981-.398-12.04-.965-24.079-1.124-36.122-.036-2.717.47-6.326 2.2-7.992 3.345-3.22 2.986-6.195 1.811-9.923-.69-2.19-.548-4.627-1.013-6.905-.441-2.163-.83-4.493-1.976-6.279-.45-.702-2.924-.32-4.42-.081-1.61.258-3.156.93-5.842 1.767.6-2.925.394-5.113 1.39-6.194 3.158-3.426 2.5-7.054 2.005-11.131-1.295-10.675-1.692-21.467-3.224-32.1-.923-6.41-3.272-12.619-5.03-18.904-.886-3.165-1.883-6.298-2.821-9.836 2.453 4.689 6.194 9.55 7.094 14.89 2.37 14.075 3.486 28.36 5.145 42.557.58 4.965 3.753 9.978-.534 14.266 3.248.964 6.404 1.444 9.038 2.88 1.274.694 2.645 3.737 2.117 4.765-2.122 4.13-.838 7.768.547 11.535 1.576 4.286.65 7.635-3.081 10.54-1.2.934-1.914 3.263-1.856 4.919.428 12.1 1.687 24.198 1.543 36.284-.137 11.604.314 22.508 5.747 33.42 3.381 6.788 7.41 12.188 12.898 17.027 20.215 17.822 40.478 35.594 60.411 53.728 6.741 6.132 12.72 13.138 18.758 19.998 9.431 10.715 20.537 18.82 34.175 23.324 5.526 1.826 10.884 4.269 16.51 5.652 5.9 1.451 12.066 1.783 18.036 3 1.928.393 3.6 2.04 5.462 3.454z" style="fill:#fff;fill-opacity:1;stroke-width:2.66299" transform="translate(-7.33 -5.56) scale(.13515)"/><path fill="#26426c" d="M463.13 359.333c4.98 3.815 10.13 6.584 17.005 4.291.957-.319 3.02 2.677 4.176 4.305-1.61-.685-2.825-1.537-4.04-2.39l-1.025 1.326c7.261 6.66 14.522 13.32 21.87 20.124.086.144.393.28.51.54.562.603 1.006.945 1.63 1.57 1.884 1.868 3.583 3.456 5.288 5.039 27.518 25.548 55.036 51.096 82.396 76.906-2.582 3.743.66 2.6 2.104 3.093a.824.824 0 0 0 .292.255c-.108-.134-.216-.268-.322-.738-.005-.784-.012-1.233.311-1.635 1.447.751 2.565 1.456 3.682 2.16-.234 1.08-.683 2.167-.655 3.24.048 1.767.693 3.545.57 5.282-.242 3.413.578 6.11 3.552 8.12 2.536 1.712 3.075 3.874 1.483 6.822-1.871 3.465-3.059 7.295-4.837 10.818-.83 1.646-2.352 2.944-3.923 4.412 2.561-6.264 5.485-12.54 8.532-19.081-8.289-2.411-6.145-8.995-6.005-12.942-9.706-8.966-18.546-16.942-27.174-25.139-30.5-28.975-60.904-58.052-91.453-86.974-1.619-1.532-4.17-2.278-6.423-2.896-3.52-.965-6.693-2.084-7.544-6.508z" style="fill:#fff;fill-opacity:1;stroke-width:2.66299" transform="translate(-7.33 -5.56) scale(.13515)"/><path fill="#1d3f6c" d="M592.622 575.217c-.18-.788-.034-1.681.245-2.896.133-.321.13-.318.455-.346 2.871-.787 3.805-2.021 1.72-4.481A1865.772 1865.772 0 0 1 625.374 545c5.827-4.078 11.324-8.065 17.653-12.656l-3.058-.422c3.779-3.28 7.461-6.681 11.38-9.783 1.714-1.356 3.913-2.099 6.316-3.088.424.032.532.134.526.43.42.57.846.844 1.272 1.118.172-.526.344-1.051.526-1.588.011-.011.035-.031.381.078 1.101-.617 1.855-1.344 2.62-2.08.01-.01.034-.028.382.04 1.778-.98 3.21-2.029 4.64-3.078 0 0 0 .04.223-.057.41-.38.597-.665.783-.948 0 0-.005.05.295.02.849-.365 1.398-.701 1.946-1.037l2.349-3.845.982.476-1.181 3.706 1.31.968c1.117-1.508 2.27-2.992 3.33-4.54.36-.526.392-1.27.733-1.817 5.826-9.318 4.971-8.735-3.27-18.545-5.319-6.33-11.251-12.143-16.815-18.273-.824-.908-1.128-2.287-1.647-3.82 8.535 8.736 17.114 17.779 25.473 27.02 1.208 1.336 2.233 3.852 1.834 5.442-1.435 5.72-2.34 11.79-7.747 15.7-27.917 20.189-55.78 40.452-83.988 60.795z" style="fill:#fff;fill-opacity:1;stroke-width:2.66299" transform="translate(-7.33 -5.56) scale(.13515)"/><path fill="#3681b5" d="M662.533 561.812c1.64.417 3.116 1.444 4.109 1.095 12.802-4.5 25.788-8.614 38.216-14.003 12.697-5.505 25.077-11.876 37.122-18.702 7.72-4.375 14.57-10.28 21.845-15.447 1.04-.738 2.285-1.188 3.797-1.754-10.885 7.93-21.558 16.87-33.492 23.559-34.521 19.35-71.994 31.101-110.27 40.453-2.74.67-5.52 1.177-8.283 1.76l-.59-2.186c7.866-2.21 15.79-4.232 23.58-6.68 7.927-2.49 15.723-5.4 23.966-8.095z" style="fill:#fff;fill-opacity:1;stroke-width:2.66299" transform="translate(-7.33 -5.56) scale(.13515)"/><path fill="#1280be" d="M227.548 403.362c-.891 1.373-1.484 2.714-2.51 3.312-9.434 5.495-18.944 10.861-29.148 16.673.457-5.484.85-10.784 1.402-16.067.068-.651.866-1.538 1.52-1.768 9.642-3.404 19.317-6.716 30.083-10.428-.55 3.473-.9 5.687-1.347 8.278z" style="fill:#fff;fill-opacity:1;stroke-width:2.66299" transform="translate(-7.33 -5.56) scale(.13515)"/><path fill="#3885b5" d="M703.332 384.405c-3.586-.582-7.445-1.292-11.216-2.324-12.245-3.35-24.395-7.064-36.7-10.174-14.87-3.76-29.842-7.121-44.805-10.498-5.75-1.297-11.597-2.162-17.542-3.536 10.82 1.497 21.953 2.607 32.708 5.255 24.493 6.03 48.802 12.806 73.176 19.318 1.43.382 2.766 1.115 4.379 1.96z" style="fill:#fff;fill-opacity:1;stroke-width:2.66299" transform="translate(-7.33 -5.56) scale(.13515)"/><path fill="#1d3f6c" d="M580.858 540.97c-1.357 2.908-2.486 5.96-4.183 8.653-.692 1.098-3.338 2.348-3.863 1.94-3.323-2.575-5.388.675-7.353 1.746-4.41 2.402-3.118 3.714.466 8.617 6.537 8.944 17.174 8.639 25.98 13.284-1.21.224-3.016.89-4.396.387-6.393-2.336-13.043-4.36-18.839-7.785-3.354-1.981-6.058-6.079-7.603-9.823-1.596-3.868 2.144-6.17 5.094-8.126 3.764-2.497 7.567-4.934 11.925-7.757 1.305-.62 2.039-.878 2.772-1.136z" style="fill:#fff;fill-opacity:1;stroke-width:2.66299" transform="translate(-7.33 -5.56) scale(.13515)"/><path fill="#3885b5" d="M586.723 369.556c4.882.699 10.307.94 15.145 2.75 14.368 5.374 28.65 11.04 42.666 17.268 6.17 2.743 11.616 7.118 17.433 11.103-10.11-4.862-19.96-10.823-30.491-15.104-14.557-5.916-29.629-10.566-44.753-16.017zM720.774 465.525c1.668 3.963 4.4 8.243 4.785 12.724.663 7.72.68 15.694-.506 23.332-1.927 12.408-8.023 23.045-17.067 31.827-3.046 2.958-6.428 5.569-10.01 8.21 5.892-7.398 12.997-14.107 18.2-22.06 9.954-15.215 11.11-32.011 5.794-49.303-.439-1.428-.794-2.881-1.196-4.73z" style="fill:#fff;fill-opacity:1;stroke-width:2.66299" transform="translate(-7.33 -5.56) scale(.13515)"/><path fill="#1d3f6c" d="M447.097 49.468c-1.25-.074-2.8-.166-3.987-.87-9.816-5.832-20.473-7.34-31.22-4.38-8.601 2.371-15.767 7.509-19.335 16.417-.724 1.806-2.02 3.382-3.373 5.205 4.308-21.525 24.265-25.838 38.83-24.477 7.03.657 13.6 2.862 19.085 8.105z" style="fill:#fff;fill-opacity:1;stroke-width:2.66299" transform="translate(-7.33 -5.56) scale(.13515)"/><path fill="#1d436e" d="M262.368 209.128c2.983-2.872 6.328-5.751 10.116-8.837 9.2 4.485 18.81 5.072 28.43 5.616-.746 2.972-1.491 5.945-2.604 8.995-.106-1.36.154-2.797.507-4.75l-17.024-2.991c-.983-.173-2.125-.084-2.922-.566-6.128-3.699-11.527-3.218-16.503 2.533z" style="fill:#fff;fill-opacity:1;stroke-width:2.66299" transform="translate(-7.33 -5.56) scale(.13515)"/><path fill="#3885b5" d="M777.291 503.843c1.642-3.226 3.298-6.81 5.575-9.941 6.26-8.606 9.403-18.425 9.878-28.743.355-7.696-1.614-15.388-5.28-22.458-1.435-2.766-2.354-5.8-3.507-9.083 11.952 14.148 13.668 38.037 3.66 55.914-2.81 5.019-6.657 9.456-10.326 14.311zM528.873 358.564c15.025 2.187 30.162 4.673 45.272 7.312 3.86.674 7.635 1.829 11.66 3.074-15.02-2.28-30.255-4.831-45.472-7.491-3.817-.667-7.574-1.682-11.46-2.895z" style="fill:#fff;fill-opacity:1;stroke-width:2.66299" transform="translate(-7.33 -5.56) scale(.13515)"/><path fill="#1d3f6c" d="M452.68 96.132c.33-4.648.944-9.518 1.614-14.836l11.98 1.581.5-1.374c-2.763-1.51-5.576-2.935-8.266-4.564-1.308-.793-2.385-1.966-3.594-3.317 3.42 1.25 7.111 2.482 10.248 4.553 3.05 2.016 5.534 4.89 8.267 7.388l-.697 1.135-16.285-3.84c-1.323 4.957-2.403 9.004-3.766 13.274z" style="fill:#fff;fill-opacity:1;stroke-width:2.66299" transform="translate(-7.33 -5.56) scale(.13515)"/><path fill="#3885b5" d="M588.625 356.932c-5.5.09-11.352.18-17.18-.15-7.557-.428-15.096-1.163-22.638-1.814-6.515-.562-13.023-1.192-19.723-2.118 19.607 1.081 39.402 2.488 59.54 4.082zM685.786 418.693c3.48 2.331 7.526 4.534 10.575 7.698 5.008 5.196 9.663 10.804 13.899 16.65 2.734 3.773 4.456 8.28 6.537 12.84-8.33-13.719-18.78-25.988-31.01-37.188z" style="fill:#fff;fill-opacity:1;stroke-width:2.66299" transform="translate(-7.33 -5.56) scale(.13515)"/><path fill="#39496a" d="M448.693 352.634c-1.865-4.423-4.044-9.143-5.463-14.082-.34-1.182 1.847-3.09 3.584-5.759 1.414 3.229 2.183 4.985 3.247 7.336.865.683 1.434.771 2.004.86 0 0-.065.011-.05.281.36.422.706.574 1.052.726 0 0-.068.004-.032.314 3.385 3.552 6.733 6.795 10.082 10.037 0 0 .034.305-.13.664-.36.634-.616.835-.93.962-5.042-4.666-10.085-9.332-15.618-14.435-.773-.002-1.055.433-1.338.869 1.186 3.95 2.372 7.899 3.592 12.227z" style="fill:#fff;fill-opacity:1;stroke-width:2.66299" transform="translate(-7.33 -5.56) scale(.13515)"/><path fill="#1d3f6c" d="M447.857 136.693c-6.994-1.304-9.43-6.039-6.468-12.487.618-1.345 1.549-2.784 1.502-4.151-.136-3.933.7-6.499 5.42-6.25.66.034 1.937-1.859 2.042-2.945.265-2.74.024-5.527.205-8.552.605 1.524 1.077 3.29 1.36 5.087 1.077 6.833.084 8.185-5.7 9.04-1.427 3.294-2.765 6.11-3.87 9.015-1.073 2.818-1.848 5.613 1.692 7.593 1.407.786 2.453 2.217 3.817 3.65z" style="fill:#fff;fill-opacity:1;stroke-width:2.66299" transform="translate(-7.33 -5.56) scale(.13515)"/><path fill="#3885b5" d="M776.938 424.671c-1.392-.361-3.22-.7-4.285-1.787-7.812-7.973-17.287-13.41-27.119-18.378-1.26-.636-2.15-2.003-3.321-3.365 12.984 5.285 24.522 13.199 34.725 23.53zM741.958 400.563a223.04 223.04 0 0 1-12.585-4.467c-6.653-2.58-13.294-5.196-19.898-7.898-1.8-.736-3.452-1.834-5.314-3.102 12.439 4.84 25.02 10.015 37.797 15.467z" style="fill:#fff;fill-opacity:1;stroke-width:2.66299" transform="translate(-7.33 -5.56) scale(.13515)"/><path fill="#1d3f6c" d="M388.369 67.147c.334 1.35.725 3.003.497 4.567-.853 5.856-2.168 11.655-2.809 17.53-.556 5.1-.694 10.328 4.266 13.919.48.347.357 1.528.172 2.515-2.368-1.768-4.394-3.728-6.42-5.69 1.356-10.86 2.71-21.72 4.294-32.841z" style="fill:#fff;fill-opacity:1;stroke-width:2.66299" transform="translate(-7.33 -5.56) scale(.13515)"/><path fill="#3885b5" d="M692.697 545.082c-1.703 1.927-3.433 4.527-5.86 5.79-7.08 3.685-14.438 6.836-22.058 10.176 8.944-5.314 18.259-10.608 27.918-15.966z" style="fill:#fff;fill-opacity:1;stroke-width:2.66299" transform="translate(-7.33 -5.56) scale(.13515)"/><path fill="#1d3f6c" d="M454.974 72.6c-.674-.07-1.783-.613-1.754-1.085.48-7.748-3.027-14.298-6.05-21.36 6.732 5.66 7.275 13.846 7.804 22.445z" style="fill:#fff;fill-opacity:1;stroke-width:2.66299" transform="translate(-7.33 -5.56) scale(.13515)"/><path fill="#1d436e" d="M233.67 195.254c.587-.116 2.04.13 2.029.27-.366 5.096 3.522 6.94 6.83 9.317.934.672 1.454 1.921 2.04 3.265-2.212-.872-4.905-1.65-6.247-3.44-1.991-2.657-3.026-6.03-4.652-9.412z" style="fill:#fff;fill-opacity:1;stroke-width:2.66299" transform="translate(-7.33 -5.56) scale(.13515)"/><path fill="#1d3f6c" d="M464.356 161.474c-.684-.145-1.636-.52-1.924-1.183-1.857-4.281-3.57-8.626-5.279-13.347 2.447 4.457 4.844 9.312 7.203 14.53z" style="fill:#fff;fill-opacity:1;stroke-width:2.66299" transform="translate(-7.33 -5.56) scale(.13515)"/><path fill="#26426c" d="M592.569 513.01c-.845 3.412-1.991 6.99-3.59 10.893-.683.496-.844.717-.935.99 0 0-.079.077-.33.288-.406.733-.562 1.255-.718 1.777-.504.632-1.009 1.263-1.846 1.905 2.15-5.222 4.634-10.454 7.419-15.852z" style="fill:#fff;fill-opacity:1;stroke-width:2.66299" transform="translate(-7.33 -5.56) scale(.13515)"/><path fill="#1d436e" d="M209.642 192.235c.829-4.405 3.97-3.576 6.961-2.422 2.756 1.062 5.363 2.51 8.228 4.056-2.98-.654-6.11-1.826-9.347-2.395-1.727-.304-3.637.433-5.842.761z" style="fill:#fff;fill-opacity:1;stroke-width:2.66299" transform="translate(-7.33 -5.56) scale(.13515)"/><path fill="#26426c" d="M580.936 540.623c-.811.605-1.545.863-2.546 1.253A177.312 177.312 0 0 1 584.553 529c.33.945.359 2.06.16 3.765-.392 1.109-.557 1.628-.722 2.147-.992 1.788-1.984 3.576-3.055 5.711z" style="fill:#fff;fill-opacity:1;stroke-width:2.66299" transform="translate(-7.33 -5.56) scale(.13515)"/><path fill="#1d436e" d="M244.758 208.851c1.518.102 3.23.808 4.942.813 3.7.01 7.4-.34 11.513-.473-5.177 4.301-10.726 3.08-16.455-.34z" style="fill:#fff;fill-opacity:1;stroke-width:2.66299" transform="translate(-7.33 -5.56) scale(.13515)"/><path fill="#3885b5" d="M526.761 352.137c.915 1.873 1.507 3.622 2.066 5.734-2.45-1.423-4.866-3.21-8.45-5.858 3.009 0 4.535 0 6.384.124zM672.86 408.496c3.613 2.4 7.343 5.112 11.105 8.17-3.64-2.387-7.314-5.122-11.105-8.17zM662.635 401.564c3.285 1.79 6.736 3.885 10.161 6.333-3.348-1.773-6.671-3.901-10.16-6.333z" style="fill:#fff;fill-opacity:1;stroke-width:2.66299" transform="translate(-7.33 -5.56) scale(.13515)"/><path fill="#1d3f6c" d="M455.859 144.7a66.778 66.778 0 0 1-6.842-6.365c2.25 1.769 4.493 3.91 6.842 6.365z" style="fill:#fff;fill-opacity:1;stroke-width:2.66299" transform="translate(-7.33 -5.56) scale(.13515)"/><path fill="#3885b5" d="M783.744 432.706c-2.208-2.118-4.45-4.569-6.716-7.373 2.211 2.112 4.446 4.577 6.716 7.373zM769.354 511.93a71.16 71.16 0 0 1 6.322-6.893c-1.768 2.251-3.888 4.52-6.322 6.892zM716.722 456.586a76.404 76.404 0 0 1 4.148 8.196c-1.413-2.345-2.76-5.087-4.148-8.196zM697.256 541.654c-.802 1.002-1.914 2.1-3.403 3.152.78-1.049 1.936-2.053 3.403-3.152z" style="fill:#fff;fill-opacity:1;stroke-width:2.66299" transform="translate(-7.33 -5.56) scale(.13515)"/><path fill="#1d3f6c" d="M451.014 98.692c.133-.646.42-1.552 1.037-2.379-.075.76-.48 1.44-1.037 2.38z" style="fill:#fff;fill-opacity:1;stroke-width:2.66299" transform="translate(-7.33 -5.56) scale(.13515)"/><path fill="#26426c" d="M462 354.261c.371-.415.627-.616.96-1.1.148.754.16 1.715-.124 2.833-.495-.377-.695-.91-.836-1.733z" style="fill:#fff;fill-opacity:1;stroke-width:2.66299" transform="translate(-7.33 -5.56) scale(.13515)"/><path fill="#1d436e" d="M230.315 194.9c.572-.25 1.448-.377 2.598-.261-.582.29-1.438.338-2.598.262z" style="fill:#fff;fill-opacity:1;stroke-width:2.66299" transform="translate(-7.33 -5.56) scale(.13515)"/><path fill="#aac8e3" d="M380.99 99.549c-.603-.066-1.258-.448-2.034-1.093.58.083 1.281.43 2.034 1.093z" style="fill:#fff;fill-opacity:1;stroke-width:2.66299" transform="translate(-7.33 -5.56) scale(.13515)"/><path fill="#3885b5" d="M684.11 417.266c.42-.015.966.231 1.548.796-.45.034-.936-.25-1.547-.796z" style="fill:#fff;fill-opacity:1;stroke-width:2.66299" transform="translate(-7.33 -5.56) scale(.13515)"/><path fill="#1d436e" d="M233.66 194.35c-.033.026-.201-.397-.201-.397s.203.09.257.248c.054.157-.023.121-.056.148zM208.285 193.031c-.027-.248.223-.489.739-.748.023.24-.22.497-.739.748z" style="fill:#fff;fill-opacity:1;stroke-width:2.66299" transform="translate(-7.33 -5.56) scale(.13515)"/><path fill="#1d3f6c" d="M456.878 145.72c-.295.169-.534-.007-.797-.479.204-.065.497.078.797.48z" style="fill:#fff;fill-opacity:1;stroke-width:2.66299" transform="translate(-7.33 -5.56) scale(.13515)"/><path fill="#aac8e3" d="M378.728 97.922c-.23.155-.572.038-1.049-.322.223-.145.58-.047 1.049.322z" style="fill:#fff;fill-opacity:1;stroke-width:2.66299" transform="translate(-7.33 -5.56) scale(.13515)"/><path fill="#1d3f6c" d="M448.991 137.71c-.291.187-.562.007-.873-.497.204-.074.516.076.873.497z" style="fill:#fff;fill-opacity:1;stroke-width:2.66299" transform="translate(-7.33 -5.56) scale(.13515)"/><path fill="#3885b5" d="M776.284 504.977c-.095-.227.077-.505.48-.883.082.212-.065.522-.48.883z" style="fill:#fff;fill-opacity:1;stroke-width:2.66299" transform="translate(-7.33 -5.56) scale(.13515)"/><path fill="#1f416c" d="M410.171 257.097c-1.95 10.059 2.09 17.839 9.526 24.441 14.805 13.143 29.539 26.367 44.464 39.841-2.874-.924-5.911-2.13-9.356-3.696-6.901-6.218-13.332-12.15-19.92-17.9-2.809-2.452-5.947-4.526-8.936-6.771 0 0 .053-.014.073-.32-1.305-1.445-2.629-2.584-4.124-4.007-1.427-1.075-2.683-1.867-3.94-2.66 0 0 .041-.026.029-.352-2.018-1.768-4.023-3.21-6.029-4.654 0 0 .044-.019.08-.309-.127-.675-.29-1.061-.454-1.447-.03-1.5.44-3.256-.174-4.457-2.913-5.702-5.27-11.332-1.239-17.709z" style="fill:#fff;fill-opacity:1;stroke-width:2.66299" transform="translate(-7.33 -5.56) scale(.13515)"/><path fill="#cfd8e8" d="M625.043 545.093c-9.945 7.37-19.89 14.742-30.28 22.485-.876.748-1.306 1.124-2.128 1.501-4.275-2.709-.076-3.88.696-5.704 0 0-.26-.383.102-.206.697.068.91-.157 1.002-.497 0 0 .059-.074.374-.138.71-.424 1.105-.784 1.5-1.145 0 0-.27-.32.145-.209.863-.253 1.31-.616 1.758-.98 0 0-.186-.083.17-.083.926-.466 1.495-.933 2.065-1.399 0 0 .115-.077.473-.22 2.292-1.538 4.228-2.93 6.163-4.323.514-.256 1.028-.512 2.05-1.073 5.604-3.668 10.699-7.032 15.83-9.999.05.928.065 1.459.08 1.99z" style="fill:#fff;fill-opacity:1;stroke-width:2.66299" transform="translate(-7.33 -5.56) scale(.13515)"/><path fill="#1f416c" d="M468.613 323.952c-2.065-4.853-3.368-10.013-5.596-14.737-4.519-9.582-10.19-18.577-12.112-29.347-.42-2.355-4.607-4.04-7.21-6.358 6.641.216 8.645 1.419 9.735 7.63 2.056 11.713 9.021 21.174 13.625 31.713 1.446 3.308 1.313 7.306 1.558 11.099z" style="fill:#fff;fill-opacity:1;stroke-width:2.66299" transform="translate(-7.33 -5.56) scale(.13515)"/><path fill="#a8c3e3" d="M425.683 293.305c3.254 1.952 6.393 4.026 9.202 6.478 6.588 5.75 13.019 11.682 19.566 17.91-.99-.07-2.239-.276-3.044-.984-8.703-7.658-17.337-15.396-25.724-23.404z" style="fill:#fff;fill-opacity:1;stroke-width:2.66299" transform="translate(-7.33 -5.56) scale(.13515)"/><path fill="#1d436e" d="M298.763 200.81c-7.972-.918-16.146-2.172-24.341-3.26-.683-.092-1.514.927-2.211 1.814-.847-.262-1.76-.908-2.672-1.555.989-.776 2.113-2.347 2.946-2.206 8.717 1.48 17.387 3.234 26.278 5.206z" style="fill:#fff;fill-opacity:1;stroke-width:2.66299" transform="translate(-7.33 -5.56) scale(.13515)"/><path fill="#1d3f6c" d="M624.927 542.706c-5.095 3.364-10.19 6.728-15.624 10.159-.02-.68.084-1.72.647-2.129a1013.49 1013.49 0 0 1 18.971-13.452c.58-.401 1.611-.152 2.635.119-2.076 1.984-4.352 3.644-6.63 5.303zM592.948 563.277c-.39 1.922-4.588 3.093-.32 6.168.38 1.095.375 1.827.37 2.558l.003-.004c-3.625-2.086-9.233.604-11.137-3.965 2.6-1.28 5.1-2.55 7.635-3.742.98-.46 2.041-.747 3.448-1.015z" style="fill:#fff;fill-opacity:1;stroke-width:2.66299" transform="translate(-7.33 -5.56) scale(.13515)"/><path fill="#bccce4" d="M624.963 543.103c2.24-2.056 4.517-3.716 6.98-5.644.187-.269.152-.29.482-.358 1.174-.707 2.02-1.347 2.864-1.987 1.415-.91 2.83-1.818 4.463-2.96.833-.146 1.448-.061 3.275.19-6.33 4.592-11.826 8.579-17.653 12.657-.346-.44-.36-.97-.411-1.898z" style="fill:#fff;fill-opacity:1;stroke-width:2.66299" transform="translate(-7.33 -5.56) scale(.13515)"/><path fill="#1f416c" d="M415.874 241.134c-1.26 4.41-2.88 8.838-4.7 13.559-1.073-5.102.243-9.777 4.7-13.56zM437.683 248.107c3.719.804 7.096 1.744 10.907 2.692-1.909.395-4.335 1.356-6.57 1.027-2.873-.423-4.14.64-5.317 3.168-.013-2.14.313-4.445.98-6.887z" style="fill:#fff;fill-opacity:1;stroke-width:2.66299" transform="translate(-7.33 -5.56) scale(.13515)"/><path fill="#85aad3" d="M411.26 279.169c.487.48.65.866.766 1.562-3.465-2.144-6.884-4.6-10.303-7.055l1.147-1.457c2.689 2.285 5.378 4.57 8.39 6.95z" style="fill:#fff;fill-opacity:1;stroke-width:2.66299" transform="translate(-7.33 -5.56) scale(.13515)"/><path fill="#1f416c" d="M440.869 264.796c-1.452-2.4-2.846-5.199-4.254-8.384 1.427 2.405 2.869 5.195 4.254 8.384z" style="fill:#fff;fill-opacity:1;stroke-width:2.66299" transform="translate(-7.33 -5.56) scale(.13515)"/><path fill="#1d3f6c" d="M606.888 553.92c-1.74 1.647-3.676 3.04-5.911 4.538.256-3.309 2.308-4.885 5.911-4.538z" style="fill:#fff;fill-opacity:1;stroke-width:2.66299" transform="translate(-7.33 -5.56) scale(.13515)"/><path fill="#85aad3" d="M411.85 281.368c2.114 1.094 4.12 2.537 6.126 4.327-2.078-1.094-4.157-2.537-6.127-4.327z" style="fill:#fff;fill-opacity:1;stroke-width:2.66299" transform="translate(-7.33 -5.56) scale(.13515)"/><path fill="#1f416c" d="M443.026 272.436c-.731-1.883-1.461-4.194-2.218-6.89 3.94.842 1.444 4.19 2.218 6.89z" style="fill:#fff;fill-opacity:1;stroke-width:2.66299" transform="translate(-7.33 -5.56) scale(.13515)"/><path fill="#a8c3e3" d="M422.069 288.969c1.324 1.139 2.648 2.278 3.947 3.75-1.527-.532-3.03-1.396-4.643-2.743.106-.737.375-.912.696-1.007z" style="fill:#fff;fill-opacity:1;stroke-width:2.66299" transform="translate(-7.33 -5.56) scale(.13515)"/><path fill="#b7cee5" d="M438.502 233.722c-.783-1.628-1.508-3.615-2.114-5.993.802 1.617 1.486 3.626 2.114 5.993z" style="fill:#fff;fill-opacity:1;stroke-width:2.66299" transform="translate(-7.33 -5.56) scale(.13515)"/><path fill="#1d436e" d="M301.25 205.89c-.255-1.012-.16-2.071-.15-3.522.515-.312 1.118-.232 1.72-.153-.406 1.209-.812 2.418-1.57 3.674z" style="fill:#fff;fill-opacity:1;stroke-width:2.66299" transform="translate(-7.33 -5.56) scale(.13515)"/><path fill="#5370a3" d="M667.67 513.922a12.938 12.938 0 0 1-4.24 2.854c.046-.792.38-1.242.715-1.691 1.06-.405 2.122-.81 3.525-1.163z" style="fill:#fff;fill-opacity:1;stroke-width:2.66299" transform="translate(-7.33 -5.56) scale(.13515)"/><path fill="#85aad3" d="M421.898 288.685c-.15.379-.42.554-.748 1.026-1.286-.888-2.46-1.992-3.414-3.39 1.479.497 2.735 1.289 4.162 2.364z" style="fill:#fff;fill-opacity:1;stroke-width:2.66299" transform="translate(-7.33 -5.56) scale(.13515)"/><path fill="#1d3f6c" d="M663.757 515.064c.054.47-.28.92-.674 1.644-.059.274-.082.292-.414.257-.932.174-1.533.383-2.257.464l-.366-.38c1.108-.668 2.216-1.336 3.711-1.985z" style="fill:#fff;fill-opacity:1;stroke-width:2.66299" transform="translate(-7.33 -5.56) scale(.13515)"/><path fill="#26426c" d="M494.779 376.898c-.991-.33-1.947-1.037-3.049-2 .93.37 2.007.996 3.048 2z" style="fill:#fff;fill-opacity:1;stroke-width:2.66299" transform="translate(-7.33 -5.56) scale(.13515)"/><path fill="#1f416c" d="M464.267 321.998c.859.316 1.646.96 2.555 1.89-.793-.332-1.71-.947-2.555-1.89z" style="fill:#fff;fill-opacity:1;stroke-width:2.66299" transform="translate(-7.33 -5.56) scale(.13515)"/><path fill="#26426c" d="M487.343 370.198c-.913-.17-1.651-.706-2.545-1.475.802.214 1.76.662 2.545 1.475z" style="fill:#fff;fill-opacity:1;stroke-width:2.66299" transform="translate(-7.33 -5.56) scale(.13515)"/><path fill="#1d3f6c" d="M634.909 535.087c-.465.667-1.31 1.307-2.468 2.014.486-.636 1.287-1.338 2.468-2.014z" style="fill:#fff;fill-opacity:1;stroke-width:2.66299" transform="translate(-7.33 -5.56) scale(.13515)"/><path fill="#26426c" d="M491.491 374.09c-.892-.226-1.656-.81-2.533-1.667.812.253 1.737.78 2.533 1.666z" style="fill:#fff;fill-opacity:1;stroke-width:2.66299" transform="translate(-7.33 -5.56) scale(.13515)"/><path fill="#1d3f6c" d="M600.113 558.556c-.236.628-.805 1.095-1.65 1.623.255-.553.785-1.169 1.65-1.623z" style="fill:#fff;fill-opacity:1;stroke-width:2.66299" transform="translate(-7.33 -5.56) scale(.13515)"/><path fill="#26426c" d="M496.878 378.9c-.633-.118-1.292-.59-2.052-1.354.608.138 1.317.57 2.052 1.354z" style="fill:#fff;fill-opacity:1;stroke-width:2.66299" transform="translate(-7.33 -5.56) scale(.13515)"/><path fill="#1d3f6c" d="M658.035 519.033c.422-.67.898-1.29 1.692-1.946.319-.037.563.216.516.544-.105.67-.162 1.01-.22 1.35 0 0-.023.02-.334-.013-.704.05-1.098.134-1.492.218l-.162-.153zM584.232 534.761c-.076-.368.089-.887.471-1.578.069.361-.08.895-.47 1.578zM587.223 526.794c-.07-.358.085-.88.46-1.568.068.357-.082.88-.46 1.568zM597.88 560.173c-.115.391-.563.754-1.303 1.177.128-.362.55-.784 1.303-1.177z" style="fill:#fff;fill-opacity:1;stroke-width:2.66299" transform="translate(-7.33 -5.56) scale(.13515)"/><path fill="#26426c" d="M488.848 371.834c-.411.032-.832-.264-1.341-.81.386-.005.86.239 1.341.81z" style="fill:#fff;fill-opacity:1;stroke-width:2.66299" transform="translate(-7.33 -5.56) scale(.13515)"/><path fill="#b4c8e2" d="M452.086 340.64c-.59.26-1.16.172-1.86-.183.54-.233 1.21-.2 1.86.182z" style="fill:#fff;fill-opacity:1;stroke-width:2.66299" transform="translate(-7.33 -5.56) scale(.13515)"/><path fill="#1d3f6c" d="M595.971 561.316c-.057.434-.451.794-1.115 1.214.08-.389.429-.839 1.115-1.214z" style="fill:#fff;fill-opacity:1;stroke-width:2.66299" transform="translate(-7.33 -5.56) scale(.13515)"/><path fill="#5370a3" d="M670.916 511.95c-.205.336-.754.672-1.628 1.034.212-.328.748-.68 1.628-1.034z" style="fill:#fff;fill-opacity:1;stroke-width:2.66299" transform="translate(-7.33 -5.56) scale(.13515)"/><path fill="#1d3f6c" d="M594.163 562.596c.18.416-.033.641-.608.77-.048-.27.144-.558.608-.77z" style="fill:#fff;fill-opacity:1;stroke-width:2.66299" transform="translate(-7.33 -5.56) scale(.13515)"/><path fill="#b7cee5" d="M439.205 238.708c-.198.002-.349-.25-.352-.602.231.049.315.199.352.602zM439.498 242.265c-.25-.142-.264-.484-.217-1.338.192.038.322.587.217 1.338zM454.478 248.502c.02.011-.02-.01 0 0z" style="fill:#fff;fill-opacity:1;stroke-width:2.66299" transform="translate(-7.33 -5.56) scale(.13515)"/><path fill="#bac9e0" d="M507.784 389.898c-.123.14-.33.08-.6-.196.115-.09.309-.02.6.196z" style="fill:#fff;fill-opacity:1;stroke-width:2.66299" transform="translate(-7.33 -5.56) scale(.13515)"/><path fill="#1d3f6c" d="M588.235 524.807c-.1-.187.061-.408.479-.668.109.191-.049.415-.479.668z" style="fill:#fff;fill-opacity:1;stroke-width:2.66299" transform="translate(-7.33 -5.56) scale(.13515)"/><path fill="#b4c8e2" d="M453.206 341.626c-.485.218-.83.066-1.193-.389.433-.196.882-.088 1.193.389z" style="fill:#fff;fill-opacity:1;stroke-width:2.66299" transform="translate(-7.33 -5.56) scale(.13515)"/><path fill="#5370a3" d="M668.758 513.044c.074.206-.113.49-.543.87-.068-.2.107-.496.543-.87z" style="fill:#fff;fill-opacity:1;stroke-width:2.66299" transform="translate(-7.33 -5.56) scale(.13515)"/><path fill="#03356e" d="M590.94 471.044c.675-.018 1.192.225 1.882.699.18.678.187 1.127.185 1.916-.007.341-.017.353-.017.353-1.39-.368-4.632.775-2.05-2.968zM593.006 473.995c.114.13.222.263.33.397a.824.824 0 0 1-.292-.255c-.054-.125-.044-.137-.038-.142zM593.322 571.975c-.32-.703-.314-1.435-.302-2.532.437-.741.867-1.117 1.576-1.578 2.531 2.089 1.597 3.323-1.274 4.11z" style="fill:#fff;fill-opacity:1;stroke-width:2.66299" transform="translate(-7.33 -5.56) scale(.13515)"/><path fill="#5370a3" d="M660.37 519.09c-.29-.45-.232-.79-.006-1.332.771-.41 1.372-.619 2.294-.783-.434.771-1.187 1.498-2.288 2.115zM658.191 519.482c.4-.38.794-.463 1.488-.503.128.57-.044 1.095-.216 1.621-.426-.274-.852-.548-1.272-1.118z" style="fill:#fff;fill-opacity:1;stroke-width:2.66299" transform="translate(-7.33 -5.56) scale(.13515)"/><path fill="#edeeee" d="M445.428 340.245c-.044-.274.238-.71.718-.867.002.42-.195.562-.718.867z" style="fill:#fff;fill-opacity:1;stroke-width:2.66299" transform="translate(-7.33 -5.56) scale(.13515)"/><path style="fill:#fff;fill-opacity:1;stroke-width:9.39686;stroke-miterlimit:4;stroke-dasharray:none" d="M351.758 230.635h45.715v38.954h-45.715zM385.714 91.357h15.067v25.43h-15.067z" transform="translate(-7.33 -5.56) scale(.13515)"/></g></g></svg>