<?xml version="1.0" encoding="UTF-8" standalone="no"?>
<svg
   xmlns:dc="http://purl.org/dc/elements/1.1/"
   xmlns:cc="http://creativecommons.org/ns#"
   xmlns:rdf="http://www.w3.org/1999/02/22-rdf-syntax-ns#"
   xmlns:svg="http://www.w3.org/2000/svg"
   xmlns="http://www.w3.org/2000/svg"
   xmlns:sodipodi="http://sodipodi.sourceforge.net/DTD/sodipodi-0.dtd"
   xmlns:inkscape="http://www.inkscape.org/namespaces/inkscape"
   version="1.1"
   id="Capa_1"
   x="0px"
   y="0px"
   viewBox="0 0 100 100"
   xml:space="preserve"
   sodipodi:docname="whatsapp.svg"
   width="100"
   height="100"
   inkscape:version="1.0.1 (3bc2e813f5, 2020-09-07)"><metadata
   id="metadata47"><rdf:RDF><cc:Work
       rdf:about=""><dc:format>image/svg+xml</dc:format><dc:type
         rdf:resource="http://purl.org/dc/dcmitype/StillImage" /><dc:title /></cc:Work></rdf:RDF></metadata><defs
   id="defs45" /><sodipodi:namedview
   pagecolor="#ffffff"
   bordercolor="#666666"
   borderopacity="1"
   objecttolerance="10"
   gridtolerance="10"
   guidetolerance="10"
   inkscape:pageopacity="0"
   inkscape:pageshadow="2"
   inkscape:window-width="1360"
   inkscape:window-height="705"
   id="namedview43"
   showgrid="false"
   inkscape:zoom="3.5624463"
   inkscape:cx="-11.958682"
   inkscape:cy="43.301602"
   inkscape:window-x="-8"
   inkscape:window-y="42"
   inkscape:window-maximized="1"
   inkscape:current-layer="g851"
   inkscape:document-rotation="0" />
<g
   id="g10"
   transform="scale(0.21942769)"
   style="stroke-width:4.55732">
	<rect
   x="0"
   y="0"
   style="fill:#1bd741;stroke-width:5.19228"
   width="455.73099"
   height="455.73099"
   id="rect2" />
	<g
   id="g8"
   style="stroke-width:4.55732">
		
		<g
   id="g851"
   transform="matrix(0.67892272,0,0,0.67892272,73.162435,73.162435)"
   style="stroke-width:6.71258"><g
     id="g860"><g
       id="g855"><path
         style="fill:#ffffff;stroke-width:6.71258"
         d="M 68.494,387.41 90.817,308.126 C 76.462,283.739 68.904,255.992 68.904,227.488 c 0,-87.765 71.402,-159.167 159.167,-159.167 87.765,0 159.166,71.402 159.166,159.167 0,87.765 -71.401,159.167 -159.166,159.167 -27.347,0 -54.125,-7 -77.814,-20.292 z m 85.943,-50.004 4.872,2.975 c 20.654,12.609 44.432,19.274 68.762,19.274 72.877,0 132.166,-59.29 132.166,-132.167 0,-72.877 -59.289,-132.167 -132.166,-132.167 -72.877,0 -132.167,59.29 -132.167,132.167 0,25.393 7.217,50.052 20.869,71.311 l 3.281,5.109 -12.855,45.658 z"
         id="path4" /><path
         style="fill:#ffffff;stroke-width:6.71258"
         d="m 183.359,153.407 -10.328,-0.563 c -3.244,-0.177 -6.426,0.907 -8.878,3.037 -5.007,4.348 -13.013,12.754 -15.472,23.708 -3.667,16.333 2,36.333 16.667,56.333 14.667,20 42,52 90.333,65.667 15.575,4.404 27.827,1.435 37.28,-4.612 7.487,-4.789 12.648,-12.476 14.508,-21.166 l 1.649,-7.702 c 0.524,-2.448 -0.719,-4.932 -2.993,-5.98 L 271.22,246.04 c -2.266,-1.044 -4.953,-0.384 -6.477,1.591 l -13.703,17.764 c -1.035,1.342 -2.807,1.874 -4.407,1.312 -9.384,-3.298 -40.818,-16.463 -58.066,-49.687 -0.748,-1.441 -0.562,-3.19 0.499,-4.419 l 13.096,-15.15 c 1.338,-1.547 1.676,-3.722 0.872,-5.602 l -15.046,-35.201 c -0.801,-1.874 -2.596,-3.13 -4.629,-3.241 z"
         id="path6" /></g></g></g>
	</g>
</g>
<g
   id="g12">
</g>
<g
   id="g14">
</g>
<g
   id="g16">
</g>
<g
   id="g18">
</g>
<g
   id="g20">
</g>
<g
   id="g22">
</g>
<g
   id="g24">
</g>
<g
   id="g26">
</g>
<g
   id="g28">
</g>
<g
   id="g30">
</g>
<g
   id="g32">
</g>
<g
   id="g34">
</g>
<g
   id="g36">
</g>
<g
   id="g38">
</g>
<g
   id="g40">
</g>
</svg>
